<svg width="32" height="32" viewBox="0 0 32 32" fill="none" xmlns="http://www.w3.org/2000/svg">
<path d="M16.1307 29.635C14.1981 29.635 12.3646 28.5876 11.2257 26.8335C11.1502 26.7175 11.0755 26.5933 11.0035 26.4648C10.835 26.1636 10.9424 25.7827 11.2437 25.6143C11.545 25.4456 11.9256 25.5532 12.0943 25.8542C12.1527 25.959 12.2132 26.0591 12.274 26.1523C13.1815 27.5508 14.6231 28.3853 16.1307 28.3853C17.638 28.3853 19.0796 27.5505 19.9874 26.1526C20.1751 25.863 20.5623 25.7808 20.8519 25.9688C21.1414 26.1567 21.2237 26.5437 21.0357 26.8333C19.8965 28.5876 18.063 29.635 16.1307 29.635Z" fill="white"/>
<path d="M7.89893 1.25H5.5625C5.21729 1.25 4.9375 0.970215 4.9375 0.625C4.9375 0.279785 5.21729 0 5.5625 0H7.89893C8.24414 0 8.52393 0.279785 8.52393 0.625C8.52393 0.970215 8.24414 1.25 7.89893 1.25Z" fill="white"/>
<path d="M10.5476 1.25C10.5068 1.25 10.4656 1.24561 10.4258 1.23755C10.3857 1.22998 10.3462 1.21753 10.3088 1.2019C10.2708 1.18628 10.2344 1.16699 10.2007 1.14429C10.1663 1.12183 10.1345 1.0957 10.1057 1.06689C10.0769 1.03809 10.0508 1.00635 10.0281 0.971924C10.0051 0.938232 9.98633 0.901855 9.9707 0.863769C9.95508 0.826172 9.94263 0.786865 9.93433 0.746826C9.92627 0.706787 9.92261 0.665527 9.92261 0.625C9.92261 0.584473 9.92627 0.543213 9.93433 0.503174C9.94263 0.463135 9.95508 0.423828 9.9707 0.385742C9.98633 0.348145 10.0051 0.312012 10.0281 0.278076C10.0508 0.243652 10.0769 0.211914 10.1057 0.183105C10.1345 0.154297 10.1663 0.128174 10.2007 0.105713C10.2344 0.0825195 10.2708 0.0637207 10.3088 0.0480957C10.3462 0.0324707 10.3857 0.0200195 10.4258 0.0119629C10.5063 -0.00366211 10.5889 -0.00366211 10.6694 0.0119629C10.7095 0.0200195 10.7488 0.0324707 10.7864 0.0480957C10.8245 0.0637207 10.8606 0.0825195 10.8945 0.105713C10.9287 0.128174 10.9607 0.154297 10.9895 0.183105C11.0181 0.211914 11.0444 0.243652 11.0669 0.278076C11.0901 0.312012 11.1089 0.348145 11.1245 0.385742C11.1401 0.423828 11.1526 0.463135 11.1606 0.503174C11.1687 0.543213 11.1726 0.584473 11.1726 0.625C11.1726 0.665527 11.1687 0.707031 11.1606 0.746826C11.1526 0.786865 11.1401 0.826172 11.1245 0.863769C11.1089 0.901855 11.0901 0.938232 11.0669 0.971924C11.0444 1.00635 11.0181 1.03809 10.9895 1.06689C10.9607 1.0957 10.9287 1.12183 10.8945 1.14429C10.8606 1.16699 10.8245 1.18628 10.7864 1.2019C10.7488 1.21753 10.7095 1.22998 10.6694 1.23755C10.6294 1.24561 10.5881 1.25 10.5476 1.25Z" fill="white"/>
<path d="M26.7615 15.7148L24.4495 11.8057C24.4436 11.7959 24.4375 11.7861 24.4312 11.7766L24.3066 10.8506C24.3059 10.845 24.3052 10.8391 24.3042 10.8335C24.1521 9.90161 23.7603 9.01929 23.1711 8.28223C22.583 7.54565 21.8093 6.96851 20.9331 6.61304C20.5747 6.46802 20.1973 6.39453 19.8108 6.39453H16.8894C17.0295 5.79688 17.5674 5.3501 18.2078 5.3501H23.3062C24.7815 5.3501 25.9819 4.15015 25.9819 2.67505C25.9819 1.19995 24.7815 0 23.3062 0H13.0071C12.6619 0 12.3821 0.279785 12.3821 0.625C12.3821 0.970215 12.6619 1.25 13.0071 1.25H23.3062C24.0923 1.25 24.7319 1.8894 24.7319 2.67505C24.7319 3.46094 24.0923 4.1001 23.3062 4.1001H18.2078C16.8765 4.1001 15.7754 5.10425 15.6221 6.39453H12.4509C12.0652 6.39453 11.6873 6.46826 11.3276 6.61353C11.3232 6.61523 11.3186 6.61719 11.314 6.61914C9.54883 7.33887 8.2627 8.95361 7.95557 10.8357C7.95459 10.8418 7.95386 10.8477 7.95288 10.8535L7.82983 11.7769C7.82349 11.7861 7.81738 11.7959 7.81152 11.8057L5.49951 15.7148C5.29834 16.0232 5.19214 16.3804 5.19214 16.7485V22.4402C5.19214 22.8672 5.33887 23.2866 5.60645 23.6218L9.28027 28.2129C9.30322 28.2415 9.32812 28.2676 9.35474 28.291C10.9399 30.6174 13.4583 32 16.1306 32C18.8027 32 21.321 30.6174 22.9062 28.2913C22.9329 28.2678 22.9578 28.2417 22.9807 28.2129L26.6553 23.6211C26.9221 23.2866 27.0688 22.8669 27.0688 22.4402V16.7485C27.0688 16.3804 26.9626 16.0232 26.7615 15.7148ZM16.1306 11.7402C16.385 11.7402 16.6245 11.8396 16.8049 12.0198C16.9854 12.2002 17.0845 12.4397 17.0845 12.6941V16.0884C17.0845 16.6143 16.6565 17.0422 16.1306 17.0422C15.6045 17.0422 15.1765 16.6143 15.1765 16.0884V12.6941C15.1765 12.1682 15.6045 11.7402 16.1306 11.7402ZM15.604 7.64453V10.4929C15.604 10.5132 15.605 10.5332 15.6069 10.553C14.6436 10.7886 13.9263 11.6592 13.9263 12.6941V16.0884C13.9263 17.3035 14.915 18.292 16.1304 18.292C17.3457 18.292 18.3345 17.3035 18.3345 16.0884V12.6941C18.3345 12.1055 18.1052 11.5522 17.6887 11.1357C17.4465 10.8938 17.158 10.7148 16.8433 10.6077C16.8503 10.5703 16.854 10.532 16.854 10.4927V7.64453H19.0549V19.6167C19.0491 19.7217 18.8438 20.1531 18.2346 20.6143C17.8674 20.8926 17.1055 21.3594 16.1306 21.3594C15.1555 21.3594 14.3938 20.8926 14.0264 20.6143C13.4172 20.1531 13.2119 19.7217 13.2061 19.6184V7.64453H15.604ZM6.44214 22.4402V16.7485C6.44214 16.6216 6.47949 16.4983 6.55005 16.3923C6.55615 16.3831 6.56201 16.3735 6.56787 16.364L7.81494 14.2554V23.3044C7.81494 23.6982 7.84155 24.0911 7.8938 24.48L6.58301 22.842C6.49219 22.7278 6.44214 22.5852 6.44214 22.4402ZM16.1306 30.75C13.8186 30.75 11.6353 29.5127 10.2898 27.4399C10.2012 27.3037 10.1138 27.1587 10.0303 27.0095C9.39893 25.8804 9.06494 24.5991 9.06494 23.3044V11.9702L9.19092 11.0283C9.43115 9.57373 10.428 8.3269 11.7942 7.77319C11.7976 7.77197 11.8015 7.77026 11.8052 7.7688C11.855 7.74902 11.9053 7.73145 11.9561 7.71655V19.6187C11.9561 20.3411 12.6196 21.1091 13.2405 21.5872C13.7366 21.969 14.7715 22.6094 16.1306 22.6094C17.4895 22.6094 18.5244 21.969 19.0205 21.5872C19.6414 21.1091 20.3049 20.3411 20.3049 19.6187V7.71606C20.3586 7.73193 20.4116 7.75049 20.4636 7.77148C21.1414 8.04639 21.7397 8.49268 22.1946 9.0625C22.6482 9.63013 22.9507 10.3088 23.0691 11.0261L23.196 11.9705V23.3044C23.196 24.7761 22.7725 26.2063 21.9709 27.4404C20.6255 29.5127 18.4421 30.75 16.1306 30.75ZM25.8188 22.4402C25.8188 22.5852 25.7688 22.7278 25.6785 22.8408L24.3682 24.4785C24.4199 24.0913 24.446 23.699 24.446 23.3044V14.2554L25.6931 16.364C25.6987 16.3735 25.7048 16.3831 25.7109 16.3923C25.7815 16.4983 25.8188 16.6213 25.8188 16.7485V22.4402Z" fill="white"/>
</svg>
