<svg width="14" height="8" viewBox="0 0 14 8" fill="none" xmlns="http://www.w3.org/2000/svg">
<path d="M6.45372 7.78279L0.223657 1.72295C0.0794464 1.5828 -6.10079e-08 1.3957 -5.22877e-08 1.1962C-4.35674e-08 0.996706 0.0794465 0.809609 0.223657 0.669453L0.682352 0.223188C0.981244 -0.0671997 1.46703 -0.0671997 1.76547 0.223188L6.9971 5.31178L12.2345 0.217542C12.3787 0.0773856 12.571 5.49495e-07 12.776 5.58456e-07C12.9812 5.67426e-07 13.1734 0.0773856 13.3178 0.217542L13.7763 0.663807C13.9206 0.804074 14 0.991061 14 1.19056C14 1.39005 13.9206 1.57715 13.7763 1.71731L7.54059 7.78279C7.39592 7.92328 7.20277 8.00044 6.99744 8C6.79131 8.00044 6.59827 7.92328 6.45372 7.78279Z" fill="#58585A"/>
</svg>
