<svg width="19" height="19" viewBox="0 0 19 19" fill="none" xmlns="http://www.w3.org/2000/svg">
<path d="M1.58335 2.375H17.4167C18.2899 2.375 19 3.08509 19 3.95835V15.0417C19 15.9149 18.2899 16.625 17.4167 16.625H1.58331C0.710087 16.625 0 15.9149 0 15.0417V3.95835C0 3.08509 0.710087 2.375 1.58335 2.375ZM17.4167 3.16665H1.58331C1.52497 3.16665 1.47358 3.18792 1.41884 3.19994C2.78962 4.4545 7.33493 8.61268 8.92555 10.0458C9.05001 10.1579 9.25062 10.2917 9.49996 10.2917C9.7493 10.2917 9.94991 10.1579 10.0748 10.0454C11.6653 8.61253 16.2108 4.45413 17.5814 3.20002C17.5265 3.18799 17.475 3.16665 17.4167 3.16665ZM18.2083 15.0417V3.95835C18.2083 3.88079 18.185 3.81043 18.164 3.73955C17.1149 4.69979 13.9434 7.60115 11.8869 9.4712C13.9367 11.2319 17.109 14.2396 18.1665 15.248C18.1852 15.1807 18.2083 15.1148 18.2083 15.0417ZM1.58335 15.8333H17.4167C17.4799 15.8333 17.5361 15.8113 17.5952 15.7972C16.5024 14.7555 13.3099 11.7305 11.2961 10.0078C11.0336 10.2459 10.7938 10.4631 10.6048 10.6334C10.2785 10.928 9.89662 11.0833 9.5 11.0833C9.10338 11.0833 8.72148 10.9279 8.39562 10.6338C8.20652 10.4634 7.96653 10.246 7.70387 10.0078C5.69002 11.7303 2.49794 14.7551 1.40485 15.7972C1.46389 15.8113 1.52004 15.8333 1.58335 15.8333ZM0.791655 15.0417C0.791655 15.1148 0.814812 15.1807 0.833441 15.248C1.89135 14.2391 5.06331 11.2317 7.11305 9.47124C5.05652 7.60119 1.88549 4.70009 0.835962 3.73947C0.815033 3.81035 0.791655 3.88075 0.791655 3.95831V15.0417Z" fill="#D21E24"/>
</svg>
