<svg width="32" height="32" viewBox="0 0 32 32" fill="none" xmlns="http://www.w3.org/2000/svg">
<path d="M29.6562 1.25H2.34375C1.05127 1.25 0 2.30127 0 3.59375V4.33325C0 4.59229 0.209961 4.802 0.46875 4.802C0.727539 4.802 0.9375 4.59229 0.9375 4.33325V3.59375C0.9375 2.81836 1.56836 2.1875 2.34375 2.1875H29.6562C30.4316 2.1875 31.0625 2.81836 31.0625 3.59375V18.4688H29.9062V5.25C29.9062 4.30225 29.1353 3.53125 28.1875 3.53125H23.1475C22.8887 3.53125 22.6787 3.74121 22.6787 4C22.6787 4.25879 22.8887 4.46875 23.1475 4.46875H28.1875C28.6184 4.46875 28.9688 4.81909 28.9688 5.25V18.4688H3.03125V5.25C3.03125 4.81909 3.38159 4.46875 3.8125 4.46875H20.96C21.219 4.46875 21.4287 4.25879 21.4287 4C21.4287 3.74121 21.219 3.53125 20.96 3.53125H3.8125C2.86475 3.53125 2.09375 4.30225 2.09375 5.25V18.4688H0.9375V6.52075C0.9375 6.26196 0.727539 6.052 0.46875 6.052C0.209961 6.052 0 6.26196 0 6.52075V23.0312C0 23.979 0.770996 24.75 1.71875 24.75H10.6875V27.5625H8.03247C7.42944 27.5625 6.93872 28.0532 6.93872 28.6562V29.5938C6.93872 30.1968 7.42944 30.6875 8.03247 30.6875H10.6143C10.873 30.6875 11.083 30.4778 11.083 30.2188C11.083 29.96 10.873 29.75 10.6143 29.75H8.03247C7.94629 29.75 7.87622 29.6799 7.87622 29.5938V28.6562C7.87622 28.5701 7.94629 28.5 8.03247 28.5H23.97C24.0562 28.5 24.1262 28.5701 24.1262 28.6562V29.5938C24.1262 29.6799 24.0562 29.75 23.97 29.75H12.8018C12.5427 29.75 12.333 29.96 12.333 30.2188C12.333 30.4778 12.5427 30.6875 12.8018 30.6875H23.97C24.573 30.6875 25.0637 30.1968 25.0637 29.5938V28.6562C25.0637 28.0532 24.573 27.5625 23.97 27.5625H21.3125V24.75H30.2812C31.229 24.75 32 23.979 32 23.0312V3.59375C32 2.30151 30.9487 1.25 29.6562 1.25ZM20.375 27.5625H11.625V24.75H20.375V27.5625ZM31.0625 23.0312C31.0625 23.4622 30.7122 23.8125 30.2812 23.8125H1.71875C1.28784 23.8125 0.9375 23.4622 0.9375 23.0312V19.4062H31.0625V23.0312Z" fill="white"/>
</svg>
