<svg width="32" height="32" viewBox="0 0 32 32" fill="none" xmlns="http://www.w3.org/2000/svg">
<path d="M7.10746 23.495H6.49746C5.67046 23.495 4.99746 24.168 4.99746 24.995V25.495C4.99746 25.7715 5.22096 25.995 5.49746 25.995H15.4945C15.771 25.995 15.9945 25.7715 15.9945 25.495V24.995C15.9945 24.168 15.3215 23.495 14.4945 23.495H13.8845L13.635 22.497H19.4905C20.3175 22.497 20.9905 21.824 20.9905 20.997V7.505C20.9905 6.678 20.3175 6.005 19.4905 6.005H1.50146C0.674465 6.005 0.00146484 6.678 0.00146484 7.505V20.997C0.00146484 21.824 0.674465 22.497 1.50146 22.497H7.35696L7.10746 23.495ZM6.49746 24.495H14.4945C14.7705 24.495 14.9945 24.719 14.9945 24.995H5.99746C5.99746 24.719 6.22146 24.495 6.49746 24.495ZM12.8545 23.495H8.13746L8.38696 22.497H12.605L12.8545 23.495ZM1.50146 7.005H19.491C19.767 7.005 19.991 7.229 19.991 7.505V19.497H1.00146V7.505C1.00146 7.229 1.22546 7.005 1.50146 7.005ZM1.00146 20.997V20.497H10.506C10.23 20.497 10.009 20.7205 10.009 20.997C10.009 21.2735 10.235 21.497 10.5115 21.497C10.7875 21.497 11.0115 21.2735 11.0115 20.997C11.0115 20.7205 10.7875 20.497 10.5115 20.497H19.991V20.997C19.991 21.273 19.767 21.497 19.491 21.497H10.511H1.50146C1.22546 21.497 1.00146 21.273 1.00146 20.997Z" fill="white"/>
<path d="M30.4985 6.005H23.498C22.671 6.005 21.998 6.678 21.998 7.505V24.495C21.998 25.322 22.671 25.995 23.498 25.995H30.4985C31.3255 25.995 31.9985 25.322 31.9985 24.495V7.505C31.9985 6.6775 31.3255 6.005 30.4985 6.005ZM22.998 9.003H30.9985V9.50199H22.998V9.003ZM23.498 7.005H30.4985C30.7745 7.005 30.9985 7.229 30.9985 7.505V8.003H22.998V7.505C22.998 7.229 23.222 7.005 23.498 7.005ZM30.4985 24.995H23.498C23.222 24.995 22.998 24.771 22.998 24.495V10.502H30.9985V24.495C30.9985 24.771 30.7745 24.995 30.4985 24.995Z" fill="white"/>
<path d="M26.9985 16.502C27.8255 16.502 28.4985 15.829 28.4985 15.002C28.4985 14.175 27.8255 13.502 26.9985 13.502C26.1715 13.502 25.4985 14.175 25.4985 15.002C25.4985 15.829 26.1715 16.502 26.9985 16.502ZM26.9985 14.502C27.2745 14.502 27.4985 14.726 27.4985 15.002C27.4985 15.278 27.2745 15.502 26.9985 15.502C26.7225 15.502 26.4985 15.278 26.4985 15.002C26.4985 14.726 26.7225 14.502 26.9985 14.502Z" fill="white"/>
<path d="M28.9985 19.503H24.9985C24.722 19.503 24.4985 19.7265 24.4985 20.003C24.4985 20.2795 24.722 20.503 24.9985 20.503H28.9985C29.275 20.503 29.4985 20.2795 29.4985 20.003C29.4985 19.7265 29.275 19.503 28.9985 19.503Z" fill="white"/>
<path d="M28.9985 21.003H24.9985C24.722 21.003 24.4985 21.2265 24.4985 21.503C24.4985 21.7795 24.722 22.003 24.9985 22.003H28.9985C29.275 22.003 29.4985 21.7795 29.4985 21.503C29.4985 21.2265 29.275 21.003 28.9985 21.003Z" fill="white"/>
<path d="M28.9985 22.503H24.9985C24.722 22.503 24.4985 22.7265 24.4985 23.003C24.4985 23.2795 24.722 23.503 24.9985 23.503H28.9985C29.275 23.503 29.4985 23.2795 29.4985 23.003C29.4985 22.7265 29.275 22.503 28.9985 22.503Z" fill="white"/>
</svg>
