<svg width="19" height="19" viewBox="0 0 19 19" fill="none" xmlns="http://www.w3.org/2000/svg">
<g clip-path="url(#clip0)">
<path d="M15.1096 8.43567C14.5465 8.9994 13.667 9.8798 12.9306 10.6214C12.0553 10.0484 11.264 9.41608 10.6277 8.77979C9.84197 7.99404 8.85938 6.87527 8.32838 6.08276C9.00255 5.4134 9.8842 4.53289 10.5311 3.88653L6.64461 0L4.70541 1.9043L4.70255 1.90716C4.15987 2.44984 3.93007 3.19061 4.01956 4.10889C4.30578 7.04521 7.89648 11.2984 11.0706 13.4286C12.9083 14.6619 15.5497 15.8036 17.1121 14.2411C18.2464 13.1069 18.68 12.6448 18.698 12.6257L18.9889 12.3151L15.1096 8.43567ZM16.4902 13.6193C15.3074 14.8019 12.9619 13.6386 11.5606 12.6982C8.61517 10.7214 5.15321 6.67271 4.89492 4.02351C4.83221 3.38058 4.97629 2.87819 5.32304 2.53052L6.639 1.23825L9.28682 3.88618C7.94397 5.22697 7.53942 5.6266 7.21773 5.94509L7.38836 6.2392C7.90655 7.13184 9.10841 8.50433 10.0059 9.40178C10.9903 10.3862 12.0008 11.0812 13.0574 11.7426L13.305 11.4927C13.8481 10.9447 14.6374 10.1533 15.1099 9.67999L17.7614 12.3315C17.5158 12.585 17.1055 13.0038 16.4902 13.6193Z" fill="#D21E24"/>
</g>
<defs>
<clipPath id="clip0">
<rect x="4" width="15" height="15" fill="white"/>
</clipPath>
</defs>
</svg>
